<?xml version="1.0" encoding="utf-8"?>
<COLLADA xmlns="http://www.collada.org/2005/11/COLLADASchema" version="1.4.1" xmlns:xsi="http://www.w3.org/2001/XMLSchema-instance">
  <asset>
    <contributor>
      <author>Blender User</author>
      <authoring_tool>Blender 3.0.1</authoring_tool>
    </contributor>
    <created>2025-05-29T20:00:56</created>
    <modified>2025-05-29T20:00:56</modified>
    <unit name="meter" meter="1"/>
    <up_axis>Z_UP</up_axis>
  </asset>
  <library_images/>
  <library_geometries>
    <geometry id="Circle_001-mesh" name="Circle.001">
      <mesh>
        <source id="Circle_001-mesh-positions">
          <float_array id="Circle_001-mesh-positions-array" count="384">0 1 0 -0.1950903 0.9807853 0 -0.3826835 0.9238795 0 -0.5555703 0.8314696 0 -0.7071068 0.7071068 0 -0.8314696 0.5555703 0 -0.9238795 0.3826834 0 -0.9807853 0.1950903 0 -1 0 0 -0.9807853 -0.1950903 0 -0.9238796 -0.3826834 0 -0.8314697 -0.5555702 0 -0.7071068 -0.7071068 0 -0.5555702 -0.8314697 0 -0.3826835 -0.9238795 0 -0.1950903 -0.9807853 0 0 -1 0 0.1950902 -0.9807853 0 0.3826834 -0.9238795 0 0.5555703 -0.8314695 0 0.7071067 -0.7071068 0 0.8314695 -0.5555704 0 0.9238795 -0.3826836 0 0.9807853 -0.1950904 0 1 0 0 0.9807853 0.1950904 0 0.9238795 0.3826836 0 0.8314697 0.5555701 0 0.7071069 0.7071067 0 0.5555703 0.8314696 0 0.3826834 0.9238796 0 0.1950902 0.9807853 0 0 1 0 -0.1950903 0.9807853 0 -0.3826835 0.9238795 0 -0.5555703 0.8314696 0 -0.7071068 0.7071068 0 -0.8314696 0.5555703 0 -0.9238795 0.3826834 0 -0.9807853 0.1950903 0 -1 0 0 -0.9807853 -0.1950903 0 -0.9238796 -0.3826834 0 -0.8314697 -0.5555702 0 -0.7071068 -0.7071068 0 -0.5555702 -0.8314697 0 -0.3826835 -0.9238795 0 -0.1950903 -0.9807853 0 0 -1 0 0.1950902 -0.9807853 0 0.3826834 -0.9238795 0 0.5555703 -0.8314695 0 0.7071067 -0.7071068 0 0.8314695 -0.5555704 0 0.9238795 -0.3826836 0 0.9807853 -0.1950904 0 1 0 0 0.9807853 0.1950904 0 0.9238795 0.3826836 0 0.8314697 0.5555701 0 0.7071069 0.7071067 0 0.5555703 0.8314696 0 0.3826834 0.9238796 0 0.1950902 0.9807853 0 0 0.9923847 0 -0.1936046 0.9733163 0 -0.3797692 0.9168438 0 -0.5513394 0.8251377 0 -0.7017219 0.7017219 0 -0.8251377 0.5513394 0 -0.9168438 0.3797692 0 -0.9733163 0.1936047 0 -0.9923847 0 0 -0.9733163 -0.1936046 0 -0.9168439 -0.3797692 0 -0.8251377 -0.5513393 0 -0.7017219 -0.7017219 0 -0.5513393 -0.8251377 0 -0.3797692 -0.9168438 0 -0.1936046 -0.9733163 0 0 -0.9923847 0 0.1936045 -0.9733163 0 0.3797692 -0.9168438 0 0.5513395 -0.8251376 0 0.7017219 -0.701722 0 0.8251376 -0.5513396 0 0.9168438 -0.3797693 0 0.9733163 -0.1936047 0 0.9923847 0 0 0.9733163 0.1936047 0 0.9168438 0.3797693 0 0.8251378 0.5513392 0 0.701722 0.7017218 0 0.5513395 0.8251377 0 0.3797692 0.9168439 0 0.1936045 0.9733163 0 0 0.9923847 0 -0.1936046 0.9733163 0 -0.3797692 0.9168438 0 -0.5513394 0.8251377 0 -0.7017219 0.7017219 0 -0.8251377 0.5513394 0 -0.9168438 0.3797692 0 -0.9733163 0.1936047 0 -0.9923847 0 0 -0.9733163 -0.1936046 0 -0.9168439 -0.3797692 0 -0.8251377 -0.5513393 0 -0.7017219 -0.7017219 0 -0.5513393 -0.8251377 0 -0.3797692 -0.9168438 0 -0.1936046 -0.9733163 0 0 -0.9923847 0 0.1936045 -0.9733163 0 0.3797692 -0.9168438 0 0.5513395 -0.8251376 0 0.7017219 -0.701722 0 0.8251376 -0.5513396 0 0.9168438 -0.3797693 0 0.9733163 -0.1936047 0 0.9923847 0 0 0.9733163 0.1936047 0 0.9168438 0.3797693 0 0.8251378 0.5513392 0 0.701722 0.7017218 0 0.5513395 0.8251377 0 0.3797692 0.9168439 0 0.1936045 0.9733163 0</float_array>
          <technique_common>
            <accessor source="#Circle_001-mesh-positions-array" count="128" stride="3">
              <param name="X" type="float"/>
              <param name="Y" type="float"/>
              <param name="Z" type="float"/>
            </accessor>
          </technique_common>
        </source>
        <source id="Circle_001-mesh-normals">
          <float_array id="Circle_001-mesh-normals-array" count="6">0 0 1 0 0 -1</float_array>
          <technique_common>
            <accessor source="#Circle_001-mesh-normals-array" count="2" stride="3">
              <param name="X" type="float"/>
              <param name="Y" type="float"/>
              <param name="Z" type="float"/>
            </accessor>
          </technique_common>
        </source>
        <source id="Circle_001-mesh-map-0">
          <float_array id="Circle_001-mesh-map-0-array" count="1536">0 0 0 0 0 0 0 0 0 0 0 0 0 0 0 0 0 0 0 0 0 0 0 0 0 0 0 0 0 0 0 0 0 0 0 0 0 0 0 0 0 0 0 0 0 0 0 0 0 0 0 0 0 0 0 0 0 0 0 0 0 0 0 0 0 0 0 0 0 0 0 0 0 0 0 0 0 0 0 0 0 0 0 0 0 0 0 0 0 0 0 0 0 0 0 0 0 0 0 0 0 0 0 0 0 0 0 0 0 0 0 0 0 0 0 0 0 0 0 0 0 0 0 0 0 0 0 0 0 0 0 0 0 0 0 0 0 0 0 0 0 0 0 0 0 0 0 0 0 0 0 0 0 0 0 0 0 0 0 0 0 0 0 0 0 0 0 0 0 0 0 0 0 0 0 0 0 0 0 0 0 0 0 0 0 0 0 0 0 0 0 0 0 0 0 0 0 0 0 0 0 0 0 0 0 0 0 0 0 0 0 0 0 0 0 0 0 0 0 0 0 0 0 0 0 0 0 0 0 0 0 0 0 0 0 0 0 0 0 0 0 0 0 0 0 0 0 0 0 0 0 0 0 0 0 0 0 0 0 0 0 0 0 0 0 0 0 0 0 0 0 0 0 0 0 0 0 0 0 0 0 0 0 0 0 0 0 0 0 0 0 0 0 0 0 0 0 0 0 0 0 0 0 0 0 0 0 0 0 0 0 0 0 0 0 0 0 0 0 0 0 0 0 0 0 0 0 0 0 0 0 0 0 0 0 0 0 0 0 0 0 0 0 0 0 0 0 0 0 0 0 0 0 0 0 0 0 0 0 0 0 0 0 0 0 0 0 0 0 0 0 0 0 0 0 0 0 0 0 0 0 0 0 0 0 0 0 0 0 0 0 0 0 0 0 0 0 0 0 0 0 0 0 0 0 0 0 0 0 0 0 0 0 0 0 0 0 0 0 0 0 0 0 0 0 0 0 0 0 0 0 0 0 0 0 0 0 0 0 0 0 0 0 0 0 0 0 0 0 0 0 0 0 0 0 0 0 0 0 0 0 0 0 0 0 0 0 0 0 0 0 0 0 0 0 0 0 0 0 0 0 0 0 0 0 0 0 0 0 0 0 0 0 0 0 0 0 0 0 0 0 0 0 0 0 0 0 0 0 0 0 0 0 0 0 0 0 0 0 0 0 0 0 0 0 0 0 0 0 0 0 0 0 0 0 0 0 0 0 0 0 0 0 0 0 0 0 0 0 0 0 0 0 0 0 0 0 0 0 0 0 0 0 0 0 0 0 0 0 0 0 0 0 0 0 0 0 0 0 0 0 0 0 0 0 0 0 0 0 0 0 0 0 0 0 0 0 0 0 0 0 0 0 0 0 0 0 0 0 0 0 0 0 0 0 0 0 0 0 0 0 0 0 0 0 0 0 0 0 0 0 0 0 0 0 0 0 0 0 0 0 0 0 0 0 0 0 0 0 0 0 0 0 0 0 0 0 0 0 0 0 0 0 0 0 0 0 0 0 0 0 0 0 0 0 0 0 0 0 0 0 0 0 0 0 0 0 0 0 0 0 0 0 0 0 0 0 0 0 0 0 0 0 0 0 0 0 0 0 0 0 0 0 0 0 0 0 0 0 0 0 0 0 0 0 0 0 0 0 0 0 0 0 0 0 0 0 0 0 0 0 0 0 0 0 0 0 0 0 0 0 0 0 0 0 0 0 0 0 0 0 0 0 0 0 0 0 0 0 0 0 0 0 0 0 0 0 0 0 0 0 0 0 0 0 0 0 0 0 0 0 0 0 0 0 0 0 0 0 0 0 0 0 0 0 0 0 0 0 0 0 0 0 0 0 0 0 0 0 0 0 0 0 0 0 0 0 0 0 0 0 0 0 0 0 0 0 0 0 0 0 0 0 0 0 0 0 0 0 0 0 0 0 0 0 0 0 0 0 0 0 0 0 0 0 0 0 0 0 0 0 0 0 0 0 0 0 0 0 0 0 0 0 0 0 0 0 0 0 0 0 0 0 0 0 0 0 0 0 0 0 0 0 0 0 0 0 0 0 0 0 0 0 0 0 0 0 0 0 0 0 0 0 0 0 0 0 0 0 0 0 0 0 0 0 0 0 0 0 0 0 0 0 0 0 0 0 0 0 0 0 0 0 0 0 0 0 0 0 0 0 0 0 0 0 0 0 0 0 0 0 0 0 0 0 0 0 0 0 0 0 0 0 0 0 0 0 0 0 0 0 0 0 0 0 0 0 0 0 0 0 0 0 0 0 0 0 0 0 0 0 0 0 0 0 0 0 0 0 0 0 0 0 0 0 0 0 0 0 0 0 0 0 0 0 0 0 0 0 0 0 0 0 0 0 0 0 0 0 0 0 0 0 0 0 0 0 0 0 0 0 0 0 0 0 0 0 0 0 0 0 0 0 0 0 0 0 0 0 0 0 0 0 0 0 0 0 0 0 0 0 0 0 0 0 0 0 0 0 0 0 0 0 0 0 0 0 0 0 0 0 0 0 0 0 0 0 0 0 0 0 0 0 0 0 0 0 0 0 0 0 0 0 0 0 0 0 0 0 0 0 0 0 0 0 0 0 0 0 0 0 0 0 0 0 0 0 0 0 0 0 0 0 0 0 0 0 0 0 0 0 0 0 0 0 0 0 0 0 0 0 0 0 0 0 0 0 0 0 0 0 0 0 0 0 0 0 0 0 0 0 0 0 0 0 0 0 0 0 0 0 0 0 0 0 0 0 0 0 0 0 0 0 0 0 0 0 0 0 0 0 0 0 0 0 0 0 0 0 0 0 0 0 0 0 0 0 0 0 0 0 0 0 0 0 0 0 0 0 0 0 0 0 0 0 0 0 0 0 0 0 0 0 0 0 0 0 0 0 0 0 0 0 0 0 0 0 0 0 0 0 0 0 0 0 0 0 0 0 0 0 0 0 0 0 0 0 0 0 0 0 0 0 0 0 0 0 0 0 0 0 0 0 0 0 0 0 0 0 0 0 0 0 0 0 0 0 0 0 0 0 0 0 0 0 0 0 0 0 0 0 0 0 0 0 0 0 0 0 0 0 0 0 0 0 0 0 0 0 0 0 0 0 0 0 0 0 0 0 0 0 0 0 0 0 0 0 0 0 0 0 0 0 0 0 0 0 0 0 0 0 0 0 0 0 0 0 0 0 0 0 0 0 0 0 0 0 0 0 0 0 0 0 0 0 0 0 0 0 0 0 0 0 0 0 0 0 0 0 0 0 0 0 0 0 0 0 0 0 0 0 0 0 0 0 0 0 0 0 0 0 0 0 0 0 0 0 0 0 0 0 0 0 0 0 0 0 0 0 0 0 0 0 0 0 0 0 0 0 0 0 0 0 0 0 0 0 0 0 0 0 0 0 0 0 0 0 0 0 0 0 0 0 0 0 0 0 0 0 0 0 0 0 0 0 0 0 0 0 0 0 0 0 0 0 0</float_array>
          <technique_common>
            <accessor source="#Circle_001-mesh-map-0-array" count="768" stride="2">
              <param name="S" type="float"/>
              <param name="T" type="float"/>
            </accessor>
          </technique_common>
        </source>
        <vertices id="Circle_001-mesh-vertices">
          <input semantic="POSITION" source="#Circle_001-mesh-positions"/>
        </vertices>
        <triangles count="256">
          <input semantic="VERTEX" source="#Circle_001-mesh-vertices" offset="0"/>
          <input semantic="NORMAL" source="#Circle_001-mesh-normals" offset="1"/>
          <input semantic="TEXCOORD" source="#Circle_001-mesh-map-0" offset="2" set="0"/>
          <p>43 0 0 10 0 1 11 0 2 57 0 3 24 0 4 25 0 5 44 0 6 11 0 7 12 0 8 58 0 9 25 0 10 26 0 11 45 0 12 12 0 13 13 0 14 59 0 15 26 0 16 27 0 17 46 0 18 13 0 19 14 0 20 33 0 21 0 0 22 1 0 23 60 0 24 27 0 25 28 0 26 47 0 27 14 0 28 15 0 29 34 0 30 1 0 31 2 0 32 61 0 33 28 0 34 29 0 35 48 0 36 15 0 37 16 0 38 35 0 39 2 0 40 3 0 41 62 0 42 29 0 43 30 0 44 49 0 45 16 0 46 17 0 47 36 0 48 3 0 49 4 0 50 63 0 51 30 0 52 31 0 53 50 0 54 17 0 55 18 0 56 37 0 57 4 0 58 5 0 59 32 0 60 31 0 61 0 0 62 51 0 63 18 0 64 19 0 65 38 0 66 5 0 67 6 0 68 52 0 69 19 0 70 20 0 71 39 0 72 6 0 73 7 0 74 53 0 75 20 0 76 21 0 77 40 0 78 7 0 79 8 0 80 54 0 81 21 0 82 22 0 83 41 0 84 8 0 85 9 0 86 55 0 87 22 0 88 23 0 89 42 0 90 9 0 91 10 0 92 56 0 93 23 0 94 24 0 95 74 0 96 107 0 97 75 0 98 88 0 99 121 0 100 89 0 101 75 0 102 108 0 103 76 0 104 89 0 105 122 0 106 90 0 107 76 0 108 109 0 109 77 0 110 90 0 111 123 0 112 91 0 113 77 0 114 110 0 115 78 0 116 64 0 117 97 0 118 65 0 119 91 0 120 124 0 121 92 0 122 78 0 123 111 0 124 79 0 125 65 0 126 98 0 127 66 0 128 92 0 129 125 0 130 93 0 131 79 0 132 112 0 133 80 0 134 66 0 135 99 0 136 67 0 137 93 0 138 126 0 139 94 0 140 80 0 141 113 0 142 81 0 143 67 0 144 100 0 145 68 0 146 94 0 147 127 0 148 95 0 149 81 0 150 114 0 151 82 0 152 68 0 153 101 0 154 69 0 155 95 0 156 96 0 157 64 0 158 82 0 159 115 0 160 83 0 161 69 0 162 102 0 163 70 0 164 83 0 165 116 0 166 84 0 167 70 0 168 103 0 169 71 0 170 84 0 171 117 0 172 85 0 173 71 0 174 104 0 175 72 0 176 85 0 177 118 0 178 86 0 179 72 0 180 105 0 181 73 0 182 86 0 183 119 0 184 87 0 185 73 0 186 106 0 187 74 0 188 87 0 189 120 0 190 88 0 191 57 0 192 120 0 193 56 0 194 30 1 195 95 1 196 31 1 197 5 1 198 68 1 199 69 1 200 58 0 201 121 0 202 57 0 203 0 1 204 95 1 205 64 1 206 5 1 207 70 1 208 6 1 209 59 0 210 122 0 211 58 0 212 33 0 213 96 0 214 32 0 215 6 1 216 71 1 217 7 1 218 60 0 219 123 0 220 59 0 221 34 0 222 97 0 223 33 0 224 7 1 225 72 1 226 8 1 227 61 0 228 124 0 229 60 0 230 35 0 231 98 0 232 34 0 233 8 1 234 73 1 235 9 1 236 61 0 237 126 0 238 125 0 239 35 0 240 100 0 241 99 0 242 10 1 243 73 1 244 74 1 245 62 0 246 127 0 247 126 0 248 37 0 249 100 0 250 36 0 251 11 1 252 74 1 253 75 1 254 32 0 255 127 0 256 63 0 257 37 0 258 102 0 259 101 0 260 11 1 261 76 1 262 12 1 263 38 0 264 103 0 265 102 0 266 12 1 267 77 1 268 13 1 269 40 0 270 103 0 271 39 0 272 13 1 273 78 1 274 14 1 275 41 0 276 104 0 277 40 0 278 14 1 279 79 1 280 15 1 281 42 0 282 105 0 283 41 0 284 16 1 285 79 1 286 80 1 287 43 0 288 106 0 289 42 0 290 16 1 291 81 1 292 17 1 293 44 0 294 107 0 295 43 0 296 18 1 297 81 1 298 82 1 299 45 0 300 108 0 301 44 0 302 19 1 303 82 1 304 83 1 305 45 0 306 110 0 307 109 0 308 19 1 309 84 1 310 20 1 311 46 0 312 111 0 313 110 0 314 20 1 315 85 1 316 21 1 317 48 0 318 111 0 319 47 0 320 21 1 321 86 1 322 22 1 323 49 0 324 112 0 325 48 0 326 22 1 327 87 1 328 23 1 329 50 0 330 113 0 331 49 0 332 23 1 333 88 1 334 24 1 335 51 0 336 114 0 337 50 0 338 24 1 339 89 1 340 25 1 341 51 0 342 116 0 343 115 0 344 26 1 345 89 1 346 90 1 347 53 0 348 116 0 349 52 0 350 27 1 351 90 1 352 91 1 353 1 1 354 64 1 355 65 1 356 53 0 357 118 0 358 117 0 359 27 1 360 92 1 361 28 1 362 2 1 363 65 1 364 66 1 365 54 0 366 119 0 367 118 0 368 28 1 369 93 1 370 29 1 371 3 1 372 66 1 373 67 1 374 56 0 375 119 0 376 55 0 377 29 1 378 94 1 379 30 1 380 3 1 381 68 1 382 4 1 383 43 0 384 42 0 385 10 0 386 57 0 387 56 0 388 24 0 389 44 0 390 43 0 391 11 0 392 58 0 393 57 0 394 25 0 395 45 0 396 44 0 397 12 0 398 59 0 399 58 0 400 26 0 401 46 0 402 45 0 403 13 0 404 33 0 405 32 0 406 0 0 407 60 0 408 59 0 409 27 0 410 47 0 411 46 0 412 14 0 413 34 0 414 33 0 415 1 0 416 61 0 417 60 0 418 28 0 419 48 0 420 47 0 421 15 0 422 35 0 423 34 0 424 2 0 425 62 0 426 61 0 427 29 0 428 49 0 429 48 0 430 16 0 431 36 0 432 35 0 433 3 0 434 63 0 435 62 0 436 30 0 437 50 0 438 49 0 439 17 0 440 37 0 441 36 0 442 4 0 443 32 0 444 63 0 445 31 0 446 51 0 447 50 0 448 18 0 449 38 0 450 37 0 451 5 0 452 52 0 453 51 0 454 19 0 455 39 0 456 38 0 457 6 0 458 53 0 459 52 0 460 20 0 461 40 0 462 39 0 463 7 0 464 54 0 465 53 0 466 21 0 467 41 0 468 40 0 469 8 0 470 55 0 471 54 0 472 22 0 473 42 0 474 41 0 475 9 0 476 56 0 477 55 0 478 23 0 479 74 0 480 106 0 481 107 0 482 88 0 483 120 0 484 121 0 485 75 0 486 107 0 487 108 0 488 89 0 489 121 0 490 122 0 491 76 0 492 108 0 493 109 0 494 90 0 495 122 0 496 123 0 497 77 0 498 109 0 499 110 0 500 64 0 501 96 0 502 97 0 503 91 0 504 123 0 505 124 0 506 78 0 507 110 0 508 111 0 509 65 0 510 97 0 511 98 0 512 92 0 513 124 0 514 125 0 515 79 0 516 111 0 517 112 0 518 66 0 519 98 0 520 99 0 521 93 0 522 125 0 523 126 0 524 80 0 525 112 0 526 113 0 527 67 0 528 99 0 529 100 0 530 94 0 531 126 0 532 127 0 533 81 0 534 113 0 535 114 0 536 68 0 537 100 0 538 101 0 539 95 0 540 127 0 541 96 0 542 82 0 543 114 0 544 115 0 545 69 0 546 101 0 547 102 0 548 83 0 549 115 0 550 116 0 551 70 0 552 102 0 553 103 0 554 84 0 555 116 0 556 117 0 557 71 0 558 103 0 559 104 0 560 85 0 561 117 0 562 118 0 563 72 0 564 104 0 565 105 0 566 86 0 567 118 0 568 119 0 569 73 0 570 105 0 571 106 0 572 87 0 573 119 0 574 120 0 575 57 0 576 121 0 577 120 0 578 30 1 579 94 1 580 95 1 581 5 1 582 4 1 583 68 1 584 58 0 585 122 0 586 121 0 587 0 1 588 31 1 589 95 1 590 5 1 591 69 1 592 70 1 593 59 0 594 123 0 595 122 0 596 33 0 597 97 0 598 96 0 599 6 1 600 70 1 601 71 1 602 60 0 603 124 0 604 123 0 605 34 0 606 98 0 607 97 0 608 7 1 609 71 1 610 72 1 611 61 0 612 125 0 613 124 0 614 35 0 615 99 0 616 98 0 617 8 1 618 72 1 619 73 1 620 61 0 621 62 0 622 126 0 623 35 0 624 36 0 625 100 0 626 10 1 627 9 1 628 73 1 629 62 0 630 63 0 631 127 0 632 37 0 633 101 0 634 100 0 635 11 1 636 10 1 637 74 1 638 32 0 639 96 0 640 127 0 641 37 0 642 38 0 643 102 0 644 11 1 645 75 1 646 76 1 647 38 0 648 39 0 649 103 0 650 12 1 651 76 1 652 77 1 653 40 0 654 104 0 655 103 0 656 13 1 657 77 1 658 78 1 659 41 0 660 105 0 661 104 0 662 14 1 663 78 1 664 79 1 665 42 0 666 106 0 667 105 0 668 16 1 669 15 1 670 79 1 671 43 0 672 107 0 673 106 0 674 16 1 675 80 1 676 81 1 677 44 0 678 108 0 679 107 0 680 18 1 681 17 1 682 81 1 683 45 0 684 109 0 685 108 0 686 19 1 687 18 1 688 82 1 689 45 0 690 46 0 691 110 0 692 19 1 693 83 1 694 84 1 695 46 0 696 47 0 697 111 0 698 20 1 699 84 1 700 85 1 701 48 0 702 112 0 703 111 0 704 21 1 705 85 1 706 86 1 707 49 0 708 113 0 709 112 0 710 22 1 711 86 1 712 87 1 713 50 0 714 114 0 715 113 0 716 23 1 717 87 1 718 88 1 719 51 0 720 115 0 721 114 0 722 24 1 723 88 1 724 89 1 725 51 0 726 52 0 727 116 0 728 26 1 729 25 1 730 89 1 731 53 0 732 117 0 733 116 0 734 27 1 735 26 1 736 90 1 737 1 1 738 0 1 739 64 1 740 53 0 741 54 0 742 118 0 743 27 1 744 91 1 745 92 1 746 2 1 747 1 1 748 65 1 749 54 0 750 55 0 751 119 0 752 28 1 753 92 1 754 93 1 755 3 1 756 2 1 757 66 1 758 56 0 759 120 0 760 119 0 761 29 1 762 93 1 763 94 1 764 3 1 765 67 1 766 68 1 767</p>
        </triangles>
      </mesh>
    </geometry>
  </library_geometries>
  <library_visual_scenes>
    <visual_scene id="Scene" name="Scene">
      <node id="Circle" name="Circle" type="NODE">
        <matrix sid="transform">50 0 0 0 0 50 0 0 0 0 0.5 0 0 0 0 1</matrix>
        <instance_geometry url="#Circle_001-mesh" name="Circle"/>
      </node>
    </visual_scene>
  </library_visual_scenes>
  <scene>
    <instance_visual_scene url="#Scene"/>
  </scene>
</COLLADA>